<?xml version="1.0" encoding="utf-8"?>
<!-- Generator: Adobe Illustrator 21.0.2, SVG Export Plug-In . SVG Version: 6.00 Build 0)  -->
<svg version="1.1" xmlns="http://www.w3.org/2000/svg" xmlns:xlink="http://www.w3.org/1999/xlink" x="0px" y="0px"
	 viewBox="0 0 840 370" style="enable-background:new 0 0 840 370;" xml:space="preserve">
<style type="text/css">
	.st0{fill:#DDF3F0;fill-opacity:2.500000e-02;stroke:#DDF3F0;stroke-miterlimit:10;}
	.st1{fill:none;stroke:#DDF3F0;stroke-miterlimit:10;}
	.st2{fill:none;stroke:#DDF3F0;stroke-width:2;stroke-miterlimit:10;}
	.st3{fill:none;stroke:#DDF3F0;stroke-width:3;stroke-miterlimit:10;}
</style>
<g id="Layer_1">
	<g id="Layer_1_1_">
		<path class="st0" d="M419,3h419.5v247c0,0-96,31-109.5,117H419H109C95.5,281,2.5,250,2.5,250V3H419z"/>
	</g>
	<g id="Layer_3">
		<polygon class="st1" points="419,31.6 613.6,31.6 627.3,3 419,3 210.8,3 224.4,31.6 		"/>
	</g>
</g>
<g id="Layer_2_2_">
	<polyline class="st2" points="682.5,367 681.5,326.5 792.5,215.5 839,215.5 	"/>
	<polyline class="st2" points="2.5,215.5 49,215.5 160,326.5 159,367 	"/>
</g>
<g id="Layer_3_1_">
	<polyline class="st3" points="187,8 7.5,8 7.5,147.5 	"/>
	<polyline class="st3" points="653.5,8 833,8 833,147.5 	"/>
</g>
</svg>
